HIERARCHY
ROOT Hips
{
	OFFSET 0.000000 0.000000 0.000000
	CHANNELS 6 Xposition Yposition Zposition Zrotation Yrotation Xrotation 
	JOINT LeftUpLeg_virtual
	{
		OFFSET 0.000000 0.000000 0.000000
		CHANNELS 3 Zrotation Yrotation Xrotation
		JOINT LeftUpLeg
		{
			OFFSET 10.205400 -3.823500 0.155100
			CHANNELS 3 Zrotation Yrotation Xrotation
			JOINT LeftLeg
			{
				OFFSET 0.708757 -12.982077 0.567790
				CHANNELS 3 Zrotation Yrotation Xrotation
				JOINT LeftFoot
				{
					OFFSET -0.708756 -10.717838 -2.184338
					CHANNELS 3 Zrotation Yrotation Xrotation
					JOINT LeftToeBase
					{
						OFFSET 0.108149 -7.191104 7.560241
						CHANNELS 3 Zrotation Yrotation Xrotation
						End Site
						{
							OFFSET 0.000000 0.000000 0.000000
						}
					}
				}
			}
		}
	}
	JOINT RightUpLeg_virtual
	{
		OFFSET 0.000000 0.000000 0.000000
		CHANNELS 3 Zrotation Yrotation Xrotation
		JOINT RightUpLeg
		{
			OFFSET -10.205400 -3.823500 0.005500
			CHANNELS 3 Zrotation Yrotation Xrotation
			JOINT RightLeg
			{
				OFFSET -0.708756 -12.982134 0.610632
				CHANNELS 3 Zrotation Yrotation Xrotation
				JOINT RightFoot
				{
					OFFSET 0.708754 -10.717769 -1.945823
					CHANNELS 3 Zrotation Yrotation Xrotation
					JOINT RightToeBase
					{
						OFFSET -0.108140 -7.191069 7.372968
						CHANNELS 3 Zrotation Yrotation Xrotation
						End Site
						{
							OFFSET 0.000000 0.000000 0.000000
						}
					}
				}
			}
		}
	}
	JOINT Spine_virtual
	{
		OFFSET 0.000000 0.000000 0.000000
		CHANNELS 3 Zrotation Yrotation Xrotation
		JOINT Spine
		{
			OFFSET 0.000000 6.876099 0.125700
			CHANNELS 3 Zrotation Yrotation Xrotation
			JOINT Spine1
			{
				OFFSET 0.000000 8.022060 0.146608
				CHANNELS 3 Zrotation Yrotation Xrotation
				JOINT Spine2
				{
					OFFSET 0.000000 9.168068 0.167552
					CHANNELS 3 Zrotation Yrotation Xrotation
					JOINT Neck_virtual
					{
						OFFSET 0.000000 0.000000 0.000000
						CHANNELS 3 Zrotation Yrotation Xrotation
						JOINT Neck
						{
							OFFSET 0.000000 10.314075 0.188496
							CHANNELS 3 Zrotation Yrotation Xrotation
							JOINT Head
							{
								OFFSET 0.000000 7.643700 -2.377400
								CHANNELS 3 Zrotation Yrotation Xrotation
								End Site
								{
									OFFSET 0.000000 0.000000 0.000000
								}
							}
						}
					}
					JOINT LeftShoulder_virtual
					{
						OFFSET 0.000000 0.000000 0.000000
						CHANNELS 3 Zrotation Yrotation Xrotation
						JOINT LeftShoulder
						{
							OFFSET 4.392200 8.824978 0.174984
							CHANNELS 3 Zrotation Yrotation Xrotation
							JOINT LeftArm
							{
								OFFSET 8.771219 -2.981674 -0.026999
								CHANNELS 3 Zrotation Yrotation Xrotation
								JOINT LeftForeArm
								{
									OFFSET 8.512804 0.000000 -0.000000
									CHANNELS 3 Zrotation Yrotation Xrotation
									JOINT LeftHand
									{
										OFFSET 18.484802 0.000000 -0.000000
										CHANNELS 3 Zrotation Yrotation Xrotation
										End Site
										{
											OFFSET 0.000000 0.000000 0.000000
										}
									}
								}
							}
						}
					}
					JOINT RightShoulder_virtual
					{
						OFFSET 0.000000 0.000000 0.000000
						CHANNELS 3 Zrotation Yrotation Xrotation
						JOINT RightShoulder
						{
							OFFSET -4.392200 8.824993 0.141379
							CHANNELS 3 Zrotation Yrotation Xrotation
							JOINT RightArm
							{
								OFFSET -8.771282 -2.981682 -0.094208
								CHANNELS 3 Zrotation Yrotation Xrotation
								JOINT RightForeArm
								{
									OFFSET -8.494598 0.000000 0.000000
									CHANNELS 3 Zrotation Yrotation Xrotation
									JOINT RightHand
									{
										OFFSET -18.483803 0.000000 0.000001
										CHANNELS 3 Zrotation Yrotation Xrotation
										End Site
										{
											OFFSET 0.000000 0.000000 0.000000
										}
									}
								}
							}
						}
					}
				}
			}
		}
	}
}
MOTION
Frames: 13
Frame Time: 0.033333
6.799646 35.535294 -48.487076 -179.959352 -9.036321 179.947795 -1.057251 -0.696715 9.059796 2.348255 0.636064 -31.826349 10.500431 2.638940 53.252027 -4.108340 -3.273823 10.284044 0.000000 0.000000 0.000000 2.951874 1.326146 7.322455 2.220291 3.735467 -16.035182 -6.055273 3.070872 18.898003 6.010558 4.186057 7.750355 0.000000 0.000000 0.000000 0.831209 2.649153 -1.214043 -1.567298 -1.650850 -4.437586 -1.159719 -3.974430 6.865440 -0.026600 0.020116 0.007435 -1.478225 -2.096975 10.115916 1.106062 -9.093361 9.387076 0.000000 0.000000 0.000000 0.394449 -1.654441 7.041204 -5.992960 -10.285889 3.728227 -39.163140 -4.826385 49.277899 176.616930 -79.421378 -160.346218 0.000000 0.000000 0.000000 -3.705430 -0.312877 6.655955 22.490992 1.579091 -1.211745 27.715519 -16.231770 -26.270243 -0.917416 42.542233 -5.327025 0.000000 0.000000 0.000000 
6.742724 35.562267 -49.331753 -179.952672 -11.029666 179.859672 -1.072487 -0.547538 9.006796 1.599852 0.727552 -33.449806 9.591558 3.460343 46.853745 -3.694899 -3.212324 10.937368 0.000000 0.000000 0.000000 3.296651 1.614537 7.695359 2.167665 1.301622 -14.013786 -5.342141 2.656966 19.652295 5.437685 3.837826 5.160375 0.000000 0.000000 0.000000 0.846832 2.740620 -0.557976 -1.714053 -1.910656 -4.596155 -1.272393 -3.965849 6.885268 -0.018244 -0.008465 0.042467 -1.615637 -1.999536 10.003107 -0.897905 -7.696404 8.967834 0.000000 0.000000 0.000000 0.380163 -1.610243 6.966259 -5.550609 -9.777072 3.589058 -39.571712 -4.463679 49.794716 177.133320 -79.150500 -160.892469 0.000000 0.000000 0.000000 -3.827787 -0.238808 6.600305 22.760193 1.968038 -1.162222 27.696648 -16.924953 -26.542009 -0.741758 42.894148 -5.229597 0.000000 0.000000 0.000000 
6.654876 35.561378 -50.182156 179.885914 -12.639239 -179.939558 -1.301892 -0.327335 8.907569 0.626273 1.001683 -34.656544 8.688544 4.260793 39.498089 -3.334855 -3.232950 11.480777 0.000000 0.000000 0.000000 3.534175 2.047828 7.953566 1.943051 -0.611422 -12.147582 -4.698839 2.146734 20.379507 4.935381 3.555132 2.921447 0.000000 0.000000 0.000000 0.738515 2.866832 -0.140746 -2.037441 -2.129721 -4.931289 -1.356369 -3.905267 6.874668 -0.021540 0.017464 0.008550 -1.695965 -1.967515 9.997708 -2.760110 -6.139660 8.486665 0.000000 0.000000 0.000000 0.417841 -1.450604 7.012853 -5.206499 -9.317534 3.532784 -40.077385 -4.145449 50.233955 177.856705 -78.972840 -161.658051 0.000000 0.000000 0.000000 -3.865296 -0.085945 6.633188 23.016566 2.367465 -1.090957 27.631921 -17.596859 -26.624501 -0.601082 43.258474 -5.143628 0.000000 0.000000 0.000000 
6.521902 35.514122 -51.072357 179.931362 -14.249860 -179.931676 -1.387211 -0.385022 8.880895 -0.517902 1.275105 -35.779905 7.972876 4.977135 32.373946 -2.973001 -3.375571 11.893824 0.000000 0.000000 0.000000 3.806156 2.042349 8.465228 1.966009 -2.081683 -10.399885 -4.353350 1.847431 20.642616 4.606317 3.310471 1.306530 0.000000 0.000000 0.000000 0.733412 2.883926 0.296858 -2.382538 -2.354837 -5.276920 -1.380981 -3.854960 6.884295 0.017061 -0.010960 -0.001475 -1.777773 -1.775279 9.960476 -4.397989 -4.928389 7.966606 0.000000 0.000000 0.000000 0.374788 -1.390460 7.008837 -4.937555 -9.022122 3.467947 -40.518881 -3.882103 50.667422 178.606482 -78.907932 -162.520731 0.000000 0.000000 0.000000 -3.943262 0.005271 6.582911 23.231135 2.637862 -0.948057 27.560298 -18.179916 -26.819911 -0.406209 43.529677 -4.972067 0.000000 0.000000 0.000000 
6.333480 35.414070 -52.039028 179.810508 -15.576941 -179.783502 -1.685214 -0.445180 8.967776 -1.932630 1.760317 -37.045775 7.396223 5.677723 26.296502 -2.600025 -3.493876 11.775006 0.000000 0.000000 0.000000 3.886235 1.945143 9.005209 2.019654 -3.455560 -8.827191 -4.239532 1.793176 20.952136 4.657639 3.318017 0.083568 0.000000 0.000000 0.000000 0.562398 2.928302 0.645251 -2.878534 -2.527250 -5.738091 -1.379555 -3.767704 6.851048 0.023823 -0.004870 0.036620 -1.781407 -1.744160 9.910744 -5.833025 -3.506907 7.382790 0.000000 0.000000 0.000000 0.422658 -1.259542 7.004548 -4.690155 -8.926697 3.459318 -40.889395 -3.829153 51.056180 178.864363 -78.943422 -162.987957 0.000000 0.000000 0.000000 -3.946691 0.101211 6.539733 23.380981 2.891239 -0.790398 27.430402 -18.615804 -26.960075 -0.197242 43.623394 -4.764671 0.000000 0.000000 0.000000 
6.091588 35.249180 -53.111050 179.787545 -16.663425 -179.649480 -1.973521 -0.465599 9.168647 -3.770683 2.580926 -38.499550 7.293985 6.142947 21.931377 -2.155853 -3.947493 11.369805 0.000000 0.000000 0.000000 3.895932 1.709801 9.621347 2.204412 -4.786171 -7.375257 -4.205078 1.837597 21.240116 4.961021 3.450223 -0.920703 0.000000 0.000000 0.000000 0.389325 2.991360 0.909278 -3.379499 -2.681350 -6.298467 -1.400212 -3.684327 6.838342 0.001678 -0.022702 0.031900 -1.751163 -1.683298 9.875375 -6.970474 -2.444101 6.810759 0.000000 0.000000 0.000000 0.481285 -1.213210 7.009920 -4.391164 -8.789601 3.421447 -41.164881 -3.937479 51.280244 179.533927 -78.947056 -164.015108 0.000000 0.000000 0.000000 -3.888214 0.236307 6.533178 23.540629 3.149025 -0.543025 27.262304 -18.891724 -27.072438 0.000005 43.546462 -4.479120 0.000000 0.000000 0.000000 
5.819646 35.045044 -54.324638 179.884848 -17.591437 -179.427130 -2.135182 -0.287169 9.456363 -5.603494 3.524536 -39.892212 7.498735 6.602852 19.421424 -1.671543 -4.197982 10.589568 0.000000 0.000000 0.000000 4.077325 1.400597 10.373871 2.263758 -6.210344 -6.068112 -4.156788 1.811280 21.801083 5.535005 3.597474 -1.331232 0.000000 0.000000 0.000000 0.200658 3.139743 0.989978 -3.881932 -2.813400 -7.046758 -1.350710 -3.582446 6.782357 0.009993 0.005551 0.019495 -1.762750 -1.469432 9.807972 -7.896446 -1.380901 6.156157 0.000000 0.000000 0.000000 0.479788 -1.115536 6.953797 -3.985009 -8.729005 3.487790 -41.240908 -4.155355 51.181797 -179.640314 -78.903302 -165.374849 0.000000 0.000000 0.000000 -3.943671 0.316938 6.548405 23.734474 3.334504 -0.412410 27.117588 -18.935333 -27.110204 0.128660 43.341778 -4.259013 0.000000 0.000000 0.000000 
5.519371 34.821388 -55.664711 179.720746 -18.522571 -179.221814 -2.506559 -0.155014 10.126150 -7.444136 4.541057 -41.056991 8.087052 7.290478 18.468775 -1.296146 -4.410982 9.993502 0.000000 0.000000 0.000000 4.036095 1.179181 11.228011 2.421055 -7.644212 -4.928959 -4.550409 1.712962 22.362579 6.206143 4.139744 -1.300028 0.000000 0.000000 0.000000 -0.224242 3.294502 1.032535 -4.464878 -2.964346 -7.828689 -1.342879 -3.414085 6.681788 -0.007230 0.098217 0.099215 -1.711271 -1.514522 9.722635 -8.635520 -0.396069 5.620640 0.000000 0.000000 0.000000 0.594735 -1.074263 6.840649 -3.476507 -8.713651 3.377093 -41.113190 -4.480501 50.958853 -178.899880 -78.784074 -166.818710 0.000000 0.000000 0.000000 -3.885464 0.375167 6.511559 23.956569 3.496628 -0.133415 27.180681 -18.810913 -27.165027 0.236854 43.132552 -3.903874 0.000000 0.000000 0.000000 
5.165900 34.616592 -57.100239 179.601081 -19.373779 -178.862656 -2.818853 0.108016 10.764450 -9.240852 5.888533 -41.888840 9.084708 8.787881 17.968894 -0.624707 -4.227829 11.610050 0.000000 0.000000 0.000000 4.164066 0.705021 12.257007 2.565060 -8.865622 -3.829037 -5.236859 1.850336 23.051340 6.691696 4.323364 -0.625572 0.000000 0.000000 0.000000 -0.648402 3.354991 0.857107 -5.018438 -2.987953 -8.706134 -1.345301 -3.363619 6.557195 0.039175 0.053417 0.075274 -1.783337 -1.161147 9.691359 -9.170576 0.454635 5.111543 0.000000 0.000000 0.000000 0.610031 -0.838872 6.861706 -3.035916 -8.462689 3.454529 -41.133189 -4.709526 50.481163 -178.520545 -78.434211 -168.064017 0.000000 0.000000 0.000000 -4.007047 0.590820 6.539489 24.241864 3.793073 0.105921 27.462999 -18.542239 -27.326489 0.194461 43.037562 -3.645586 0.000000 0.000000 0.000000 
4.747772 34.452976 -58.627029 178.952240 -20.290139 -178.500218 -3.780358 0.424715 11.212776 -11.473350 8.373898 -42.552386 10.332205 10.311960 18.895483 0.463616 -3.473035 13.536174 0.000000 0.000000 0.000000 4.054135 0.056096 13.124538 2.379903 -10.508448 -2.886346 -5.731678 2.396305 23.930430 7.019147 4.015109 0.579714 0.000000 0.000000 0.000000 -1.424341 3.368924 0.598967 -5.627245 -2.924800 -9.441381 -1.345993 -3.158611 6.518343 0.099419 0.162442 0.061022 -1.803871 -1.217058 9.600581 -9.560243 1.198156 4.592847 0.000000 0.000000 0.000000 0.639201 -0.732568 6.819956 -2.836016 -8.402505 3.501920 -41.252160 -4.985273 49.879215 -178.125391 -78.275512 -169.456105 0.000000 0.000000 0.000000 -4.021934 0.711323 6.619309 24.461865 3.964638 0.365094 27.875336 -18.372207 -27.638497 -0.048820 42.829951 -3.503301 0.000000 0.000000 0.000000 
4.236634 34.344814 -60.189392 178.918404 -21.848716 -178.525900 -3.888430 0.566065 11.706410 -13.324736 9.735087 -42.650556 12.072446 11.485293 20.935508 1.611620 -2.456624 13.508483 0.000000 0.000000 0.000000 4.007163 -0.224944 13.573054 2.258318 -10.840323 -2.295435 -5.775097 2.826758 25.418484 7.917982 4.262522 3.483057 0.000000 0.000000 0.000000 -1.548307 3.230602 0.372059 -5.908447 -2.817747 -9.971789 -1.496968 -2.989488 6.495130 0.072655 0.164604 0.064120 -1.882197 -1.080091 9.481663 -10.138196 1.809915 4.214616 0.000000 0.000000 0.000000 0.659934 -0.690885 6.857944 -2.961511 -8.351837 3.609561 -41.561916 -5.228605 48.828613 -177.307203 -78.503387 -171.384814 0.000000 0.000000 0.000000 -4.028793 0.694546 6.456005 24.659862 4.040805 0.680830 28.439000 -18.368170 -28.152727 -0.328572 42.656929 -3.326484 0.000000 0.000000 0.000000 
3.653763 34.280136 -61.732235 178.815746 -23.721766 -178.597057 -3.649925 0.136644 12.473081 -14.285902 9.557810 -42.065697 14.089873 11.607298 23.019792 2.267404 -1.874595 13.012033 0.000000 0.000000 0.000000 3.951354 -0.403112 13.771225 1.873367 -10.908189 -2.099706 -5.580441 3.663083 27.796971 9.286948 4.969597 7.101167 0.000000 0.000000 0.000000 -1.640276 2.928635 0.023703 -6.073785 -2.771340 -10.340828 -1.626646 -2.926373 6.572418 0.077103 0.162385 0.085482 -1.953229 -1.043881 9.482574 -10.543479 2.351360 4.059758 0.000000 0.000000 0.000000 0.563151 -0.531004 6.741799 -3.457769 -8.295645 3.641795 -41.982670 -5.372007 47.445889 -176.196710 -79.651658 -173.706136 0.000000 0.000000 0.000000 -4.118985 0.873517 6.591241 24.746605 4.321700 0.891915 28.902611 -18.413425 -28.603924 -0.643357 42.241032 -3.143601 0.000000 0.000000 0.000000 
3.018780 34.262737 -63.183250 178.962253 -25.880953 -179.020870 -2.780829 -0.466639 12.900954 -14.696482 8.755532 -40.421784 15.626892 10.988025 25.402872 2.523632 -1.585662 12.286536 0.000000 0.000000 0.000000 3.627323 -0.266810 13.632575 1.348747 -12.109088 -2.798836 -5.215277 3.936520 30.925635 10.839336 5.656819 10.027233 0.000000 0.000000 0.000000 -1.450251 2.618401 -0.145576 -6.005755 -2.761447 -10.499978 -1.716398 -2.887713 6.670675 0.087972 0.073868 -0.014446 -2.122635 -0.867500 9.453423 -11.060828 2.666692 4.008370 0.000000 0.000000 0.000000 0.323941 -0.380578 6.626204 -4.222012 -8.322836 3.763963 -42.494094 -5.471364 45.467497 -174.422800 -81.704806 -176.762004 0.000000 0.000000 0.000000 -4.268633 0.950416 6.452328 24.711867 4.615969 1.090961 29.383962 -18.481295 -29.087976 -0.816691 42.001688 -2.767791 0.000000 0.000000 0.000000 
